<svg id="Layer_1" data-name="Layer 1" xmlns="http://www.w3.org/2000/svg" viewBox="0 0 484.95 138.68"><defs><style>.cls-1{fill:#ecfe9f;}.cls-2{fill:#96a8ff;}</style></defs><circle class="cls-1" cx="186.56" cy="89.28" r="35.5"/><path class="cls-2" d="M50.15,138.68a19.35,19.35,0,0,1-11.46-3.6,21,21,0,0,1-7.57-10.32L0,41.55l18.81,0,27.76,76.88a6.27,6.27,0,0,0,1.68,2.6,3.19,3.19,0,0,0,2,.74,3.09,3.09,0,0,0,2.14-.75A7.07,7.07,0,0,0,54,118.37l27.58-77,18.44,0L69.31,124.67A22.39,22.39,0,0,1,61.7,135,19.24,19.24,0,0,1,50.15,138.68Z"/><path class="cls-2" d="M110.33,136.29l-.23-95,17.76,0,.23,95Z"/><path class="cls-2" d="M110.33,34.15l-.23-18h17.76l.23,18Z"/><path class="cls-2" d="M169.75,134.94a42.66,42.66,0,0,1-15.49-10.11,47.24,47.24,0,0,1-10.19-16.09,58.29,58.29,0,0,1-3.68-21.14q0-14.89,6-25.82a43.05,43.05,0,0,1,16.45-16.89,46.82,46.82,0,0,1,23.64-6,40.17,40.17,0,0,1,13.89,2.39,38.93,38.93,0,0,1,11.75,6.68,34.85,34.85,0,0,1,8.31,10h.38L220.66,0,237.8,0,238,87.93q0,15.84-6.37,27.12a43.78,43.78,0,0,1-17.37,17.27,51.15,51.15,0,0,1-24.77,6A54.28,54.28,0,0,1,169.75,134.94ZM205.2,119.3a30.62,30.62,0,0,0,11.34-12.13,38.47,38.47,0,0,0,4.14-18.45A39.51,39.51,0,0,0,216.45,70a30.11,30.11,0,0,0-27.33-16.42,29.35,29.35,0,0,0-16,4.51,32.12,32.12,0,0,0-11.24,12.32,38,38,0,0,0-4.15,18.27q0,10.8,4.32,18.62a31.26,31.26,0,0,0,11.49,12.08,31.37,31.37,0,0,0,31.67-.08Z"/><path class="cls-2" d="M295.64,138.1a49,49,0,0,1-23-5.26,39.16,39.16,0,0,1-15.87-14.77q-5.7-9.5-5.73-22.16L250.89,41l17.32,0,.13,54.77a28.47,28.47,0,0,0,3.76,14.8,25.57,25.57,0,0,0,10,9.57,27.82,27.82,0,0,0,13.33,3.32,28.16,28.16,0,0,0,13.5-3.38,26.24,26.24,0,0,0,10-9.62,27.92,27.92,0,0,0,3.78-14.82l-.13-54.77,17.33,0,.13,55a41.82,41.82,0,0,1-5.73,22.19,39.92,39.92,0,0,1-15.8,14.84A48.26,48.26,0,0,1,295.64,138.1Z"/><path class="cls-2" d="M399.26,135.61A53.58,53.58,0,0,1,373,129.34a48.75,48.75,0,0,1-18.3-17,44.5,44.5,0,0,1-6.76-24.11,44.48,44.48,0,0,1,6.65-24.14A48.72,48.72,0,0,1,372.78,47,53.7,53.7,0,0,1,399,40.61l11.17,0,0,14.72-11.74,0a33.37,33.37,0,0,0-17,4.42,32.54,32.54,0,0,0-11.9,11.86,32.78,32.78,0,0,0,12,45,33.36,33.36,0,0,0,17.06,4.34l11.73,0,0,14.72Z"/><path class="cls-2" d="M418.82,55.28l0-14.72,66.14-.16,0,14.72Zm43.59,80.19q-12.68,0-19.86-7.22t-7.21-19.73l-.22-91.84,17.14-.05.21,90.73q0,6.15,3.47,9.77t9.6,3.61l19.19,0,0,14.71Z"/></svg>